<svg width="27" height="21" viewBox="0 0 27 21" fill="none" xmlns="http://www.w3.org/2000/svg">
<path d="M4.40439 0.0402832C4.40369 0.0402832 4.4029 0.0402832 4.4022 0.0402832C4.15526 0.0402832 3.92301 0.136718 3.74763 0.311973C3.57032 0.489165 3.47266 0.725099 3.47266 0.976269V15.0112C3.47266 15.5259 3.89224 15.9456 4.40808 15.9469C6.58275 15.9521 10.2262 16.4062 12.7397 19.0413V4.35332C12.7397 4.17886 12.6952 4.01497 12.6112 3.87934C10.5483 0.551077 6.58398 0.0453911 4.40439 0.0402832Z" fill="#858EA9"/>
<path d="M23.4568 15.0111V0.976025C23.4568 0.724855 23.3592 0.488921 23.1819 0.311729C23.0065 0.136473 22.7741 0.0400391 22.5274 0.0400391C22.5266 0.0400391 22.5258 0.0400391 22.5251 0.0400391C20.3456 0.0452351 16.3813 0.550921 14.3183 3.87918C14.2343 4.01481 14.1899 4.1787 14.1899 4.35317V19.041C16.7034 16.406 20.3468 15.9519 22.5215 15.9467C23.0373 15.9454 23.4568 15.5256 23.4568 15.0111Z" fill="#858EA9"/>
<path d="M25.5852 3.27686H24.9078V15.0111C24.9078 16.3252 23.8391 17.3967 22.5254 17.4C20.6808 17.4044 17.6394 17.7657 15.4854 19.8081C19.2107 18.8943 23.1379 19.4883 25.3761 19.9993C25.6555 20.063 25.9443 19.9972 26.1682 19.8184C26.3913 19.6401 26.5193 19.3735 26.5193 19.0873V4.21267C26.5194 3.69668 26.1002 3.27686 25.5852 3.27686Z" fill="#858EA9"/>
<path d="M2.02217 15.0111V3.27686H1.34475C0.82979 3.27686 0.410645 3.69668 0.410645 4.21267V19.0871C0.410645 19.3733 0.538639 19.6398 0.761749 19.8181C0.985475 19.9968 1.27399 20.063 1.55389 19.999C3.79202 19.488 7.71931 18.894 11.4445 19.8078C9.29058 17.7655 6.24914 17.4043 4.40457 17.3999C3.09096 17.3967 2.02217 16.3252 2.02217 15.0111Z" fill="#858EA9"/>
</svg>
