<svg width="22" height="20" viewBox="0 0 22 20" fill="none" xmlns="http://www.w3.org/2000/svg">
<path d="M10.6615 0.0400391C4.88722 0.0400391 0.189481 4.27563 0.189481 9.48199C0.189481 11.3018 0.764045 13.0647 1.85383 14.589C1.64753 16.875 1.09461 18.5721 0.291758 19.3761C0.185642 19.4824 0.159112 19.645 0.226133 19.7793C0.285475 19.8993 0.407648 19.973 0.538548 19.973C0.554605 19.973 0.570662 19.972 0.587068 19.9695C0.72844 19.9496 4.01246 19.4761 6.38786 18.1025C7.73665 18.6477 9.17341 18.9239 10.6615 18.9239C16.4357 18.9239 21.1335 14.6883 21.1335 9.48199C21.1335 4.27563 16.4357 0.0400391 10.6615 0.0400391ZM5.77455 10.8808C5.00451 10.8808 4.37828 10.2534 4.37828 9.48199C4.37828 8.71055 5.00451 8.08318 5.77455 8.08318C6.54459 8.08318 7.17081 8.71055 7.17081 9.48199C7.17081 10.2534 6.54459 10.8808 5.77455 10.8808ZM10.6615 10.8808C9.89144 10.8808 9.26521 10.2534 9.26521 9.48199C9.26521 8.71055 9.89144 8.08318 10.6615 8.08318C11.4315 8.08318 12.0577 8.71055 12.0577 9.48199C12.0577 10.2534 11.4315 10.8808 10.6615 10.8808ZM15.5484 10.8808C14.7784 10.8808 14.1521 10.2534 14.1521 9.48199C14.1521 8.71055 14.7784 8.08318 15.5484 8.08318C16.3185 8.08318 16.9447 8.71055 16.9447 9.48199C16.9447 10.2534 16.3185 10.8808 15.5484 10.8808Z" fill="#858EA9"/>
</svg>
