<svg width="19" height="20" viewBox="0 0 19 20" fill="none" xmlns="http://www.w3.org/2000/svg">
<path d="M14.9167 18.9893C11.0315 19.4171 7.13447 19.4171 3.24923 18.9893C1.70001 18.8188 0.476352 17.5564 0.311008 15.958C-0.103669 11.9498 -0.103669 7.92958 0.311008 3.92139C0.476352 2.32314 1.70001 1.06076 3.24923 0.890186C7.13447 0.462386 11.0314 0.462386 14.9166 0.890186C16.466 1.06076 17.6896 2.32314 17.855 3.92139C18.2696 7.92958 18.2696 11.9498 17.855 15.958C17.6896 17.5564 16.4661 18.8188 14.9167 18.9893Z" fill="url(#paint0_linear_492_536)"/>
<path d="M16.8668 4.59951C16.7202 3.18128 15.6344 2.06102 14.2596 1.9096C10.8119 1.53013 7.35392 1.53013 3.90622 1.9096C2.53149 2.06102 1.4456 3.18128 1.29882 4.59951C0.930991 8.15631 0.930991 11.7237 1.29882 15.2804C1.4456 16.6987 2.53149 17.819 3.90622 17.9703C7.35392 18.3499 10.8119 18.3499 14.2594 17.9703C15.6343 17.819 16.7202 16.6987 16.8668 15.2804C17.2348 11.7237 17.2348 8.15631 16.8668 4.59951Z" fill="url(#paint1_linear_492_536)"/>
<path d="M0.271973 15.5698C0.284446 15.6994 0.297336 15.8289 0.310779 15.9584C0.476124 17.5567 1.69978 18.8191 3.24914 18.9897C7.13438 19.4175 11.0313 19.4175 14.9165 18.9897C16.4659 18.8191 17.6894 17.5567 17.8547 15.9584C17.8682 15.8289 17.8811 15.6994 17.8937 15.5698H0.271973Z" fill="url(#paint2_linear_492_536)"/>
<path d="M12.2132 3.69092C10.6304 3.69092 9.34746 5.01464 9.34746 6.64748V8.85583H7.80518V11.5901L9.34746 13.0152V19.3098C11.2049 19.3005 13.0622 19.1939 14.9171 18.9898C16.4664 18.8192 17.6899 17.5568 17.8553 15.9584C18.1638 12.9761 18.2427 9.98724 18.092 7.00151L14.883 3.69092H12.2132Z" fill="url(#paint3_linear_492_536)"/>
<path d="M9.34746 19.3098C10.4059 19.3045 11.4642 19.2674 12.5221 19.1988V11.5901H14.6285L14.883 8.85583H12.5221V7.11961C12.5221 6.73613 12.8234 6.42529 13.1951 6.42529H14.883V3.69092H12.2132C10.6304 3.69092 9.34746 5.01464 9.34746 6.64748V8.85583H7.80518V11.5901H9.34746V19.3098Z" fill="white"/>
<defs>
<linearGradient id="paint0_linear_492_536" x1="6.03146" y1="3.20426" x2="10.8658" y2="13.2303" gradientUnits="userSpaceOnUse">
<stop stop-color="#3457A0"/>
<stop offset="1" stop-color="#3B5998"/>
</linearGradient>
<linearGradient id="paint1_linear_492_536" x1="12.5289" y1="12.3827" x2="-3.66487" y2="1.5973" gradientUnits="userSpaceOnUse">
<stop stop-color="#3457A0" stop-opacity="0"/>
<stop offset="1" stop-color="#1F3F77"/>
</linearGradient>
<linearGradient id="paint2_linear_492_536" x1="9.08277" y1="16.2312" x2="9.08277" y2="18.7672" gradientUnits="userSpaceOnUse">
<stop stop-color="#3457A0" stop-opacity="0"/>
<stop offset="1" stop-color="#1F3F77"/>
</linearGradient>
<linearGradient id="paint3_linear_492_536" x1="20.8549" y1="16.0467" x2="8.0899" y2="9.80754" gradientUnits="userSpaceOnUse">
<stop stop-color="#3457A0" stop-opacity="0"/>
<stop offset="0.3251" stop-color="#2A4C8D" stop-opacity="0.32549"/>
<stop offset="0.7045" stop-color="#22427D" stop-opacity="0.705882"/>
<stop offset="1" stop-color="#1F3F77"/>
</linearGradient>
</defs>
</svg>
