<svg width="19" height="20" viewBox="0 0 19 20" fill="none" xmlns="http://www.w3.org/2000/svg">
<path d="M5.02883 5.79393C6.06789 4.71294 7.50686 4.04217 9.0888 4.04375C10.5473 4.04522 11.878 4.61013 12.8872 5.53909C13.0318 5.67218 13.2639 5.66344 13.4009 5.52207L15.2526 3.61186C15.4033 3.45631 15.3992 3.20214 15.2425 3.05294C13.5921 1.48139 11.376 0.533064 8.94471 0.570399C6.48667 0.608138 4.26322 1.66149 2.64802 3.33777C2.46792 3.52466 2.67858 5.78728 2.67858 5.78728C2.67858 5.78728 4.01499 6.84871 5.02883 5.79393Z" fill="url(#paint0_linear_492_524)"/>
<path d="M5.02833 5.7945C6.06739 4.71352 7.50635 4.04274 9.08829 4.04432C10.5468 4.04579 11.8775 4.6107 12.8867 5.53966C13.0313 5.67276 13.2634 5.66401 13.4004 5.52264L14.463 4.42645C14.3705 4.35266 14.2792 4.2752 14.1902 4.19384C12.8049 2.92817 11.0026 2.12279 9.00181 2.14447C6.92682 2.16696 5.06309 3.04006 3.71549 4.44005C3.56814 4.59313 3.51025 5.79027 3.51025 5.79027C3.51025 5.79027 3.68315 5.77414 5.02833 5.7945Z" fill="url(#paint1_linear_492_524)"/>
<path d="M3.3682 9.88655C3.35396 11.5453 4.00366 13.0475 5.05942 14.1275L4.24908 15.9316L2.67825 16.584C1.02692 14.8896 0.00357133 12.5448 9.36584e-06 9.95343C-0.0035526 7.38004 1.00911 5.03817 2.64797 3.33789L5.02879 5.79405C4.01506 6.84868 3.38174 8.29394 3.3682 9.88655Z" fill="url(#paint2_linear_492_524)"/>
<path d="M3.36804 9.88656C3.3538 11.5453 4.0035 13.0475 5.05926 14.1275L3.75737 15.471C2.40596 14.0864 1.55928 12.1781 1.52686 10.0659C1.49303 7.86879 2.33258 5.87674 3.71605 4.43994L5.02863 5.79406C4.0149 6.8487 3.38158 8.29395 3.36804 9.88656Z" fill="url(#paint3_linear_492_524)"/>
<path d="M13.1115 14.1327C12.0701 15.1973 10.6323 15.8465 9.04629 15.8361C7.49171 15.826 6.08473 15.1753 5.0601 14.1274L2.67871 16.5842C4.31476 18.2627 6.56699 19.3027 9.05477 19.3106C11.5476 19.3185 13.8148 18.2609 15.4642 16.5598L14.7836 15.0585L13.1115 14.1327Z" fill="url(#paint4_linear_492_524)"/>
<path d="M13.111 14.1325C12.0695 15.1971 10.6318 15.8465 9.04581 15.8362C7.49126 15.8261 6.08428 15.1754 5.05965 14.1274L3.75732 15.471C5.12344 16.8711 7.00516 17.7364 9.08282 17.7364C11.1605 17.7364 13.0422 16.871 14.4083 15.471L13.111 14.1325Z" fill="url(#paint5_linear_492_524)"/>
<path d="M18.166 8.97757C18.166 8.79285 18.0209 8.64307 17.8418 8.64307H9.38712C9.22673 8.64307 9.09668 8.77723 9.09668 8.9427V11.8266C9.09668 11.9921 9.22673 12.1263 9.38712 12.1263H13.5162C13.9415 12.1263 14.2056 12.6051 13.9868 12.9813C13.7427 13.4013 13.449 13.7861 13.1146 14.1284C13.1134 14.1297 13.1125 14.131 13.1113 14.1323L15.4643 16.5598C15.5754 16.4452 15.6881 16.3305 15.8018 16.2156C17.272 14.5335 18.166 12.3019 18.166 9.86736V8.97757Z" fill="url(#paint6_linear_492_524)"/>
<path d="M16.2582 12.3939C16.5906 11.3577 15.8461 10.2891 14.7882 10.2891H9.09668V11.8267C9.09668 11.9922 9.22673 12.1263 9.38712 12.1263H13.5162C13.9415 12.1263 14.2056 12.6051 13.9868 12.9814C13.7434 13.4 13.4508 13.7836 13.1179 14.1251C13.1155 14.1276 13.1137 14.1299 13.1113 14.1324L14.4085 15.4707C15.0981 14.7648 15.6559 13.9222 16.0417 12.9859C16.1211 12.7923 16.1934 12.5949 16.2582 12.3939Z" fill="url(#paint7_linear_492_524)"/>
<defs>
<linearGradient id="paint0_linear_492_524" x1="2.57521" y1="3.41516" x2="15.3628" y2="3.41516" gradientUnits="userSpaceOnUse">
<stop stop-color="#FF637B"/>
<stop offset="1" stop-color="#F90217"/>
</linearGradient>
<linearGradient id="paint1_linear_492_524" x1="12.2589" y1="8.48426" x2="3.97452" y2="0.453964" gradientUnits="userSpaceOnUse">
<stop stop-color="#FF637B"/>
<stop offset="1" stop-color="#F90217"/>
</linearGradient>
<linearGradient id="paint2_linear_492_524" x1="0.216007" y1="7.43645" x2="5.30915" y2="12.3734" gradientUnits="userSpaceOnUse">
<stop stop-color="#FFD833"/>
<stop offset="1" stop-color="#F2B631"/>
</linearGradient>
<linearGradient id="paint3_linear_492_524" x1="6.27753" y1="12.5767" x2="0.835572" y2="7.3017" gradientUnits="userSpaceOnUse">
<stop stop-color="#FFD833"/>
<stop offset="1" stop-color="#F2B631"/>
</linearGradient>
<linearGradient id="paint4_linear_492_524" x1="8.30088" y1="15.3774" x2="11.1426" y2="18.132" gradientUnits="userSpaceOnUse">
<stop stop-color="#28A265"/>
<stop offset="1" stop-color="#28895E"/>
</linearGradient>
<linearGradient id="paint5_linear_492_524" x1="12.6035" y1="19.1031" x2="4.3834" y2="11.1351" gradientUnits="userSpaceOnUse">
<stop stop-color="#28A265"/>
<stop offset="1" stop-color="#28895E"/>
</linearGradient>
<linearGradient id="paint6_linear_492_524" x1="12.965" y1="9.7074" x2="17.3238" y2="13.9325" gradientUnits="userSpaceOnUse">
<stop stop-color="#7FAEF4"/>
<stop offset="1" stop-color="#4C8DF1"/>
</linearGradient>
<linearGradient id="paint7_linear_492_524" x1="16.5051" y1="15.496" x2="10.8464" y2="10.0109" gradientUnits="userSpaceOnUse">
<stop stop-color="#7FAEF4"/>
<stop offset="1" stop-color="#4C8DF1"/>
</linearGradient>
</defs>
</svg>
